grf
version=1
nRows=19
nColumns=37
inDegrees=no
endheader
time	ground_force_1_vx	ground_force_1_vy	ground_force_1_vz	ground_force_1_px	ground_force_1_py	ground_force_1_pz	ground_moment_1_mx	ground_moment_1_my	ground_moment_1_mz	ground_force_2_vx	ground_force_2_vy	ground_force_2_vz	ground_force_2_px	ground_force_2_py	ground_force_2_pz	ground_moment_2_mx	ground_moment_2_my	ground_moment_2_mz	ground_force_3_vx	ground_force_3_vy	ground_force_3_vz	ground_force_3_px	ground_force_3_py	ground_force_3_pz	ground_moment_3_mx	ground_moment_3_my	ground_moment_3_mz	ground_force_4_vx	ground_force_4_vy	ground_force_4_vz	ground_force_4_px	ground_force_4_py	ground_force_4_pz	ground_moment_4_mx	ground_moment_4_my	ground_moment_4_mz
      0.00000000	      0.00000000	     -0.00000000	      0.00000000	      0.00000000	      0.00000000	      0.00000000	      0.00000000	      0.00000000	      0.00000000	      0.89330363	     16.39999390	   -407.92758179	   -293.57341375	  -1008.34236605	      0.00000000	      0.00000000	      0.00000000	   1353.04679295	     -0.53226629	    -18.03121562	   -325.06555176	   -282.28792481	   -740.54909077	      0.00000000	      0.00000000	     -0.00000000	  -1784.49271900	      0.00000000	     -0.00000000	      0.00000000	      0.00000000	      0.00000000	      0.00000000	      0.00000000	      0.00000000	      0.00000000
      0.01000000	      0.00000000	     -0.00000000	      0.00000000	      0.00000000	      0.00000000	      0.00000000	      0.00000000	      0.00000000	      0.00000000	      0.97904783	     16.75198364	   -408.26254272	   -293.27012194	  -1007.42601036	      0.00000000	      0.00000000	      0.00000000	   1059.48428079	     -1.06192930	    -18.54496374	   -324.36700439	   -281.45232759	   -742.47857420	      0.00000000	      0.00000000	     -0.00000000	  -1662.52821425	      0.00000000	     -0.00000000	      0.00000000	      0.00000000	      0.00000000	      0.00000000	      0.00000000	      0.00000000	      0.00000000
      0.02000000	      0.00000000	     -0.00000000	      0.00000000	      0.00000000	      0.00000000	      0.00000000	      0.00000000	      0.00000000	      0.00000000	      0.27713725	     16.67582703	   -406.14437866	   -293.48944854	  -1006.64524010	      0.00000000	      0.00000000	      0.00000000	   1053.39070209	     -1.06330743	    -18.02249708	   -324.71582031	   -281.65645886	   -741.65800785	      0.00000000	      0.00000000	     -0.00000000	  -1618.67330207	      0.00000000	     -0.00000000	      0.00000000	      0.00000000	      0.00000000	      0.00000000	      0.00000000	      0.00000000	      0.00000000
      0.03000000	      0.00000000	     -0.00000000	      0.00000000	      0.00000000	      0.00000000	      0.00000000	      0.00000000	      0.00000000	      0.00000000	      1.05961859	     16.40098381	   -405.81161499	   -293.08208475	  -1006.07070934	      0.00000000	      0.00000000	      0.00000000	   1086.45841044	     -1.06221227	    -18.19311323	   -324.35729980	   -282.16012348	   -741.40638927	      0.00000000	      0.00000000	     -0.00000000	  -1625.35747476	      0.00000000	     -0.00000000	      0.00000000	      0.00000000	      0.00000000	      0.00000000	      0.00000000	      0.00000000	      0.00000000
      0.04000000	      0.00000000	     -0.00000000	      0.00000000	      0.00000000	      0.00000000	      0.00000000	      0.00000000	      0.00000000	      0.00000000	      0.62630165	     16.13625526	   -406.16055298	   -292.58379681	  -1004.93334244	      0.00000000	      0.00000000	      0.00000000	    959.83170791	     -0.97798477	    -18.19211188	   -322.97805786	   -281.36412388	   -741.44097346	      0.00000000	     -0.00000000	     -0.00000000	  -1753.66480020	      0.00000000	     -0.00000000	      0.00000000	      0.00000000	      0.00000000	      0.00000000	      0.00000000	      0.00000000	      0.00000000
      0.05000000	      0.00000000	     -0.00000000	      0.00000000	      0.00000000	      0.00000000	      0.00000000	      0.00000000	      0.00000000	      0.00000000	      0.71368408	     16.65889931	   -403.34158325	   -292.22687423	  -1005.25916384	      0.00000000	      0.00000000	      0.00000000	   1269.92451573	     -1.41733839	    -17.93436992	   -323.65554810	   -281.48784538	   -742.39541704	      0.00000000	      0.00000000	     -0.00000000	  -1602.93571454	      0.00000000	     -0.00000000	      0.00000000	      0.00000000	      0.00000000	      0.00000000	      0.00000000	      0.00000000	      0.00000000
      0.06000000	      0.00000000	     -0.00000000	      0.00000000	      0.00000000	      0.00000000	      0.00000000	      0.00000000	      0.00000000	      0.00000000	      0.97503871	     16.57590294	   -404.03472900	   -292.78736318	  -1005.04752991	      0.00000000	      0.00000000	      0.00000000	   1254.69821519	     -0.89187727	    -18.19331734	   -323.29937744	   -281.00173430	   -742.55698997	      0.00000000	      0.00000000	     -0.00000000	  -1860.80444197	      0.00000000	     -0.00000000	      0.00000000	      0.00000000	      0.00000000	      0.00000000	      0.00000000	      0.00000000	      0.00000000
      0.07000000	      0.00000000	     -0.00000000	      0.00000000	      0.00000000	      0.00000000	      0.00000000	      0.00000000	      0.00000000	      0.00000000	      0.80289459	     15.95434189	   -405.41699219	   -292.53380610	  -1007.64410920	      0.00000000	      0.00000000	      0.00000000	   1193.70564150	     -1.15324179	    -18.10507383	   -322.27731323	   -280.63000696	   -743.25666256	      0.00000000	      0.00000000	     -0.00000000	  -1543.08874473	      0.00000000	     -0.00000000	      0.00000000	      0.00000000	      0.00000000	      0.00000000	      0.00000000	      0.00000000	      0.00000000
      0.08000000	      0.00000000	     -0.00000000	      0.00000000	      0.00000000	      0.00000000	      0.00000000	      0.00000000	      0.00000000	      0.00000000	      0.88822734	     16.75264168	   -402.26428223	   -292.18216462	  -1006.50718179	      0.00000000	      0.00000000	      0.00000000	   1328.40672958	     -0.97663629	    -18.45354453	   -322.61608887	   -280.97878077	   -741.38024080	      0.00000000	      0.00000000	      0.00000000	  -1654.74986413	      0.00000000	     -0.00000000	      0.00000000	      0.00000000	      0.00000000	      0.00000000	      0.00000000	      0.00000000	      0.00000000
      0.09000000	      0.00000000	     -0.00000000	      0.00000000	      0.00000000	      0.00000000	      0.00000000	      0.00000000	      0.00000000	      0.00000000	      0.62214684	     16.30970192	   -402.97143555	   -293.39393277	  -1007.18092648	      0.00000000	      0.00000000	      0.00000000	   1287.01733447	     -1.15399354	    -18.36716833	   -323.32327271	   -280.87189626	   -741.34395740	      0.00000000	      0.00000000	     -0.00000000	  -1514.09246841	      0.00000000	     -0.00000000	      0.00000000	      0.00000000	      0.00000000	      0.00000000	      0.00000000	      0.00000000	      0.00000000
      0.10000000	      0.00000000	     -0.00000000	      0.00000000	      0.00000000	      0.00000000	      0.00000000	      0.00000000	      0.00000000	      0.00000000	      1.24491525	     16.84111404	   -401.21438599	   -292.70068585	  -1006.93114349	      0.00000000	      0.00000000	      0.00000000	   1283.91701667	     -1.14919463	    -18.10393133	   -322.95730591	   -280.31205625	   -742.64859109	      0.00000000	     -0.00000000	     -0.00000000	  -1656.13538454	      0.00000000	     -0.00000000	      0.00000000	      0.00000000	      0.00000000	      0.00000000	      0.00000000	      0.00000000	      0.00000000
      0.11000000	      0.00000000	     -0.00000000	      0.00000000	      0.00000000	      0.00000000	      0.00000000	      0.00000000	      0.00000000	      0.00000000	      0.35991627	     16.48956299	   -401.21588135	   -292.53010069	  -1006.82127934	      0.00000000	      0.00000000	      0.00000000	   1096.09321245	     -0.62280727	    -17.84158701	   -323.67318726	   -280.80279008	   -741.55015926	      0.00000000	      0.00000000	     -0.00000000	  -1677.04529371	      0.00000000	     -0.00000000	      0.00000000	      0.00000000	      0.00000000	      0.00000000	      0.00000000	      0.00000000	      0.00000000
      0.12000000	      0.00000000	     -0.00000000	      0.00000000	      0.00000000	      0.00000000	      0.00000000	      0.00000000	      0.00000000	      0.00000000	      0.09101822	     15.86810112	   -401.91159058	   -291.56066221	  -1006.16833304	      0.00000000	      0.00000000	      0.00000000	   1050.64657971	     -0.89030680	    -18.01497070	   -325.39880371	   -281.12195117	   -742.66983625	      0.00000000	      0.00000000	     -0.00000000	  -1659.37902989	      0.00000000	     -0.00000000	      0.00000000	      0.00000000	      0.00000000	      0.00000000	      0.00000000	      0.00000000	      0.00000000
      0.13000000	      0.00000000	     -0.00000000	      0.00000000	      0.00000000	      0.00000000	      0.00000000	      0.00000000	      0.00000000	      0.00000000	      0.35743579	     16.22173309	   -403.67529297	   -291.69870042	  -1008.28670287	      0.00000000	      0.00000000	      0.00000000	   1228.39524869	     -1.06265680	    -18.19426718	   -325.41482544	   -281.15645101	   -742.08327239	      0.00000000	     -0.00000000	     -0.00000000	  -1724.95817083	      0.00000000	     -0.00000000	      0.00000000	      0.00000000	      0.00000000	      0.00000000	      0.00000000	      0.00000000	      0.00000000
      0.14000000	      0.00000000	     -0.00000000	      0.00000000	      0.00000000	      0.00000000	      0.00000000	      0.00000000	      0.00000000	      0.00000000	      0.26881331	     15.77678967	   -401.56561279	   -292.54979267	  -1006.38379977	      0.00000000	      0.00000000	      0.00000000	   1128.35048620	     -1.06248908	    -18.28218260	   -325.41250610	   -281.33423098	   -742.90978852	      0.00000000	      0.00000000	     -0.00000000	  -1607.67495460	      0.00000000	     -0.00000000	      0.00000000	      0.00000000	      0.00000000	      0.00000000	      0.00000000	      0.00000000	      0.00000000
      0.15000000	      0.00000000	     -0.00000000	      0.00000000	      0.00000000	      0.00000000	      0.00000000	      0.00000000	      0.00000000	      0.00000000	      0.53526306	     16.13276100	   -400.86239624	   -292.05971805	  -1005.89568229	      0.00000000	      0.00000000	      0.00000000	   1180.88305450	     -0.71167466	    -18.01795381	   -327.16290283	   -282.08350433	   -742.30636041	      0.00000000	     -0.00000000	     -0.00000000	  -1817.69612802	      0.00000000	     -0.00000000	      0.00000000	      0.00000000	      0.00000000	      0.00000000	      0.00000000	      0.00000000	      0.00000000
      0.16000000	      0.00000000	     -0.00000000	      0.00000000	      0.00000000	      0.00000000	      0.00000000	      0.00000000	      0.00000000	      0.00000000	      1.06996202	     15.95424747	   -403.68395996	   -292.03235279	  -1008.33288297	      0.00000000	      0.00000000	      0.00000000	   1305.06912954	     -1.06399732	    -18.36984816	   -326.45782471	   -281.39640547	   -742.99980401	      0.00000000	     -0.00000000	     -0.00000000	  -1636.23596341	      0.00000000	     -0.00000000	      0.00000000	      0.00000000	      0.00000000	      0.00000000	      0.00000000	      0.00000000	      0.00000000
      0.17000000	      0.00000000	     -0.00000000	      0.00000000	      0.00000000	      0.00000000	      0.00000000	      0.00000000	      0.00000000	      0.00000000	      0.89213455	     16.31071663	   -401.56594849	   -291.87415235	  -1006.81136045	      0.00000000	      0.00000000	      0.00000000	   1386.39148721	     -1.24154736	    -17.92970646	   -327.15270996	   -280.75321423	   -742.30441114	      0.00000000	     -0.00000000	     -0.00000000	  -1581.84036504	      0.00000000	     -0.00000000	      0.00000000	      0.00000000	      0.00000000	      0.00000000	      0.00000000	      0.00000000	      0.00000000
      0.18000000	      0.00000000	     -0.00000000	      0.00000000	      0.00000000	      0.00000000	      0.00000000	      0.00000000	      0.00000000	      0.00000000	      0.44629392	     15.86511517	   -402.97814941	   -292.40258427	  -1007.07731256	      0.00000000	      0.00000000	      0.00000000	   1156.87054737	     -1.15311639	    -18.19414319	   -327.50271606	   -281.11210964	   -741.83782467	      0.00000000	      0.00000000	     -0.00000000	  -1668.68668293	      0.00000000	     -0.00000000	      0.00000000	      0.00000000	      0.00000000	      0.00000000	      0.00000000	      0.00000000	      0.00000000
